<svg width="983" height="1062" viewBox="0 0 983 1062" fill="none" xmlns="http://www.w3.org/2000/svg">
<g clip-path="url(#clip0_353_159)">
<path d="M2 -21H999V1042H2V-21Z" fill="url(#paint0_linear_353_159)" fill-opacity="0.9"/>
<g filter="url(#filter0_d_353_159)">
<path fill-rule="evenodd" clip-rule="evenodd" d="M62.6745 486.715C177.398 280.227 332.35 165.5 500 165.5C667.647 165.5 823.04 280.223 937.765 486.714C946.231 501.398 946.232 519.481 937.766 534.165C823.04 740.657 667.647 855.38 500 855.38C332.349 855.38 177.397 740.653 62.6741 534.164C54.2088 519.481 54.2089 501.399 62.6745 486.715ZM500 172.5C335.897 172.5 182.855 284.804 68.7796 490.14L68.7656 490.165L68.7512 490.19C61.5166 502.721 61.5166 518.159 68.7512 530.69L68.7656 530.715L68.7796 530.74C182.855 736.076 335.897 848.38 500 848.38C664.106 848.38 817.587 736.072 931.661 530.74L931.675 530.715L931.689 530.69C938.924 518.159 938.924 502.721 931.689 490.19L931.675 490.165L931.661 490.14C817.587 284.808 664.106 172.5 500 172.5ZM499.999 200.857C313.822 200.857 163.428 340.572 163.428 512.286C163.428 684 313.822 823.714 499.999 823.714C686.177 823.714 836.571 684 836.571 512.286C836.571 340.572 686.177 200.857 499.999 200.857ZM155.428 512.286C155.428 335.587 309.992 192.857 499.999 192.857C690.007 192.857 844.571 335.587 844.571 512.286C844.571 688.985 690.007 831.714 499.999 831.714C309.992 831.714 155.428 688.985 155.428 512.286Z" fill="#F9F2F4"/>
<path d="M618.176 376.289C617.534 381.408 622.511 384.151 628.843 382.375C634.48 381.43 640.08 377.628 647.089 373.589C657.596 366.817 669.512 359.805 676.432 348.626C681.283 341.369 682.586 332.562 687.437 325.305C698.998 346.273 710.614 371.528 721.607 403.327C725.263 413.452 727.514 423.812 729.048 433.574C711.513 442.955 693.96 450.911 674.942 454.814C669.305 455.759 663.667 456.704 657.335 458.481C651.001 460.259 645.402 464.061 642.635 468.82C639.87 473.58 643.457 477.987 648.416 479.305C653.375 480.623 660.421 479.439 666.773 479.091C678.76 477.795 691.443 475.671 701.236 468.302C708.228 462.833 713.082 455.578 720.092 451.539C722.893 449.639 726.406 448.333 729.227 447.861C733.352 495.128 718.39 540.589 696.309 581.513C677.293 585.418 659.667 587.657 642.702 586.204C637.047 585.72 632.088 584.407 625.738 584.752C619.386 585.1 613.057 586.878 610.274 590.209C606.795 594.372 607.563 599.254 612.54 601.997C617.517 604.74 623.887 605.821 629.558 607.734C640.887 610.129 653.607 610.86 664.862 607.542C673.3 604.696 678.17 598.869 687.32 596.618L688.731 596.381C668.665 629.093 645.032 658.825 623.431 681.777C607.857 678.661 592.267 674.117 579.455 666.244C574.478 663.501 570.909 660.519 565.238 658.606C559.566 656.693 553.195 655.615 548.988 657.75C544.082 660.722 543.442 665.838 547.027 670.247C549.9 674.062 554.895 678.235 560.586 681.575C569.847 687.897 579.817 694.816 591.822 694.95C598.885 695.196 606.609 691.754 614.388 692.597C584.403 722.678 561.338 741.58 561.338 741.58C524.932 766.296 507.523 785.678 499.211 798.523C490.611 788.513 472.791 775.036 435.916 762.609C435.916 762.609 411.78 752.34 382.574 732.181C390.299 728.739 396.666 729.818 405.105 726.973C417.056 722.822 426.815 712.595 435.873 703.202C441.456 697.972 445.63 692.977 449.091 687.384C451.856 682.624 451.069 676.317 446.825 675.596C442.579 674.875 436.264 678.083 430.664 681.886C425.065 685.688 420.89 690.685 416.698 694.249C404.141 706.378 388.728 716.118 373.298 724.432C349.763 706.196 325.481 684.495 304.68 658.631L306.09 658.395C314.565 658.404 320.254 661.747 328.728 661.757C340.037 662.725 352.669 656.313 363.888 650.136C370.913 647.53 377.23 644.321 380.706 640.161C385.593 635.764 386.236 630.645 382.667 627.664C379.812 625.279 372.052 625.866 367.131 627.405C360.797 629.183 355.894 632.152 350.274 634.528C333.418 641.651 315.115 646.149 296.776 647.794C273.76 614.432 257.007 573.575 260.641 525.719C264.172 525.839 266.991 525.369 269.827 526.324C277.623 528.597 281.922 533.603 289.025 536.707C298.961 540.768 313.053 538.405 324.328 536.514C330.662 534.736 337.705 533.555 342.613 530.584C347.518 527.612 350.979 522.024 348.107 518.209C345.948 514.991 339.561 512.484 333.923 513.429C327.571 513.778 321.936 514.725 316.298 515.67C297.979 518.741 279.583 516.099 261.887 512.624C263.172 502.388 265.148 491.319 268.537 480.015C279.381 443.833 290.315 414.797 301.3 390.049C307.025 396.247 308.526 403.156 312.845 409.589C320.015 418.409 332.77 421.995 343.402 425.223C349.073 427.135 355.445 428.214 361.081 427.272C366.719 426.326 371.621 423.357 370.838 417.047C370.07 412.165 365.789 408.589 360.809 405.844C355.832 403.101 350.873 401.783 345.199 399.873C331.015 395.093 318.905 386.386 306.789 377.679C344.673 301.891 386.074 281.349 429.137 280.571C429.137 280.571 430.547 280.334 434.078 280.459C459.499 280.491 478.107 300.277 478.431 325.993C478.098 411.946 479.116 605.05 496.759 604.239C511.582 603.903 511.208 405.68 509.416 319.366C509.075 292.22 529.213 265.223 556.667 258.473C599.568 244.838 641.314 251.438 680.243 315.062C669.112 328.383 656.556 340.509 642.552 350.015C637.647 352.987 632.045 356.787 627.158 361.184C623.683 365.342 618.814 371.17 618.171 376.288L618.176 376.289Z" fill="white"/>
</g>
</g>
<defs>
<filter id="filter0_d_353_159" x="-30" y="-21" width="1082" height="1082" filterUnits="userSpaceOnUse" color-interpolation-filters="sRGB">
<feFlood flood-opacity="0" result="BackgroundImageFix"/>
<feColorMatrix in="SourceAlpha" type="matrix" values="0 0 0 0 0 0 0 0 0 0 0 0 0 0 0 0 0 0 127 0" result="hardAlpha"/>
<feOffset dx="11" dy="10"/>
<feGaussianBlur stdDeviation="6.5"/>
<feComposite in2="hardAlpha" operator="out"/>
<feColorMatrix type="matrix" values="0 0 0 0 0 0 0 0 0 0 0 0 0 0 0 0 0 0 0.5 0"/>
<feBlend mode="normal" in2="BackgroundImageFix" result="effect1_dropShadow_353_159"/>
<feBlend mode="normal" in="SourceGraphic" in2="effect1_dropShadow_353_159" result="shape"/>
</filter>
<linearGradient id="paint0_linear_353_159" x1="97.7678" y1="122.598" x2="1090.48" y2="577.056" gradientUnits="userSpaceOnUse">
<stop stop-color="#203827" stop-opacity="0.92"/>
<stop offset="1" stop-color="#122730"/>
</linearGradient>
<clipPath id="clip0_353_159">
<rect width="983" height="1062" fill="white"/>
</clipPath>
</defs>
</svg>
