<svg width="983" height="1062" viewBox="0 0 983 1062" fill="none" xmlns="http://www.w3.org/2000/svg">
<g filter="url(#filter0_d_352_110)">
<path fill-rule="evenodd" clip-rule="evenodd" d="M306.956 441.844C357.329 351.185 425.657 300.312 500 300.312C574.34 300.312 642.861 351.181 693.236 441.844C697.28 448.87 697.28 457.516 693.236 464.541C642.861 555.204 574.34 606.073 500 606.073C425.657 606.073 357.329 555.2 306.956 464.541C302.912 457.516 302.912 448.869 306.956 441.844ZM500 307.312C429.205 307.312 362.787 355.761 313.062 445.267L313.048 445.292L313.033 445.318C310.22 450.191 310.22 456.194 313.033 461.068L313.048 461.093L313.062 461.118C362.787 550.624 429.205 599.073 500 599.073C570.798 599.073 637.407 550.62 687.13 461.118L687.144 461.093L687.159 461.068C689.972 456.194 689.972 450.191 687.159 445.318L687.144 445.292L687.13 445.267C637.407 355.765 570.798 307.312 500 307.312ZM500 320C419.624 320 355 380.277 355 454C355 527.723 419.624 588 500 588C580.375 588 645 527.723 645 454C645 380.277 580.375 320 500 320ZM347 454C347 375.292 415.794 312 500 312C584.205 312 653 375.292 653 454C653 532.708 584.205 596 500 596C415.794 596 347 532.708 347 454Z" fill="#F9F2F4"/>
<path d="M551.689 394.499C551.408 396.739 553.585 397.939 556.355 397.162C558.821 396.749 561.271 395.085 564.337 393.318C568.934 390.355 574.147 387.287 577.174 382.396C579.296 379.221 579.866 375.368 581.988 372.193C587.046 381.367 592.128 392.417 596.937 406.33C598.537 410.759 599.521 415.292 600.192 419.563C592.521 423.668 584.843 427.149 576.523 428.856C574.056 429.27 571.59 429.683 568.82 430.46C566.049 431.239 563.6 432.902 562.389 434.984C561.18 437.067 562.749 438.995 564.918 439.571C567.088 440.148 570.17 439.63 572.949 439.478C578.193 438.911 583.742 437.982 588.026 434.758C591.084 432.365 593.208 429.191 596.275 427.424C597.5 426.592 599.037 426.021 600.271 425.814C602.076 446.495 595.53 466.385 585.871 484.291C577.552 485.999 569.841 486.978 562.419 486.343C559.945 486.131 557.776 485.556 554.998 485.707C552.219 485.86 549.45 486.637 548.233 488.095C546.711 489.916 547.047 492.052 549.224 493.252C551.402 494.453 554.188 494.926 556.669 495.763C561.625 496.81 567.19 497.131 572.113 495.679C575.805 494.434 577.935 491.884 581.938 490.899L582.555 490.796C573.777 505.108 563.439 518.117 553.989 528.158C547.176 526.795 540.356 524.807 534.751 521.362C532.573 520.162 531.012 518.857 528.531 518.02C526.05 517.183 523.262 516.711 521.422 517.646C519.276 518.946 518.996 521.184 520.564 523.114C521.821 524.783 524.006 526.609 526.496 528.07C530.547 530.836 534.909 533.863 540.161 533.922C543.251 534.03 546.63 532.524 550.033 532.892C536.915 546.054 526.826 554.323 526.826 554.323C510.899 565.137 503.283 573.617 499.647 579.237C495.884 574.858 488.088 568.961 471.957 563.524C471.957 563.524 461.398 559.031 448.621 550.21C452 548.704 454.786 549.177 458.477 547.932C463.706 546.116 467.975 541.641 471.938 537.532C474.38 535.243 476.206 533.058 477.72 530.611C478.929 528.528 478.585 525.769 476.728 525.453C474.871 525.138 472.108 526.541 469.659 528.205C467.209 529.869 465.383 532.055 463.549 533.614C458.056 538.921 451.313 543.182 444.563 546.82C434.267 538.841 423.644 529.346 414.544 518.03L415.161 517.927C418.868 517.931 421.357 519.393 425.065 519.398C430.012 519.821 435.538 517.016 440.446 514.313C443.519 513.173 446.282 511.769 447.803 509.949C449.941 508.025 450.222 505.786 448.661 504.481C447.412 503.438 444.017 503.695 441.864 504.368C439.093 505.146 436.949 506.445 434.49 507.484C427.116 510.601 419.109 512.569 411.086 513.289C401.017 498.691 393.688 480.815 395.278 459.877C396.822 459.93 398.055 459.724 399.296 460.142C402.707 461.136 404.588 463.327 407.695 464.685C412.041 466.461 418.206 465.428 423.139 464.601C425.91 463.822 428.991 463.306 431.138 462.006C433.284 460.706 434.798 458.261 433.541 456.592C432.597 455.184 429.803 454.087 427.336 454.5C424.557 454.653 422.092 455.067 419.626 455.481C411.612 456.824 403.564 455.668 395.822 454.148C396.384 449.669 397.249 444.826 398.732 439.88C403.475 424.05 408.259 411.346 413.064 400.518C415.569 403.23 416.225 406.253 418.115 409.067C421.251 412.926 426.831 414.495 431.483 415.908C433.964 416.744 436.751 417.216 439.217 416.804C441.683 416.391 443.828 415.092 443.485 412.331C443.149 410.195 441.276 408.63 439.098 407.429C436.92 406.229 434.751 405.652 432.269 404.816C426.064 402.725 420.766 398.915 415.465 395.106C432.038 361.947 450.15 352.959 468.989 352.619C468.989 352.619 469.606 352.515 471.15 352.57C482.271 352.584 490.412 361.241 490.554 372.492C490.409 410.099 490.855 494.588 498.573 494.233C505.058 494.086 504.893 407.358 504.109 369.593C503.959 357.716 512.769 345.904 524.779 342.951C543.548 336.986 561.81 339.874 578.841 367.711C573.971 373.539 568.479 378.845 562.352 383.004C560.206 384.304 557.756 385.967 555.618 387.891C554.098 389.71 551.968 392.259 551.687 394.499L551.689 394.499Z" fill="white"/>
</g>
<g filter="url(#filter1_d_352_110)">
<path d="M202.25 679.3L201.05 715C201.05 727.3 202.05 737.65 204.05 746.05C206.15 754.45 210 760.25 215.6 763.45C208.7 767.75 201.7 769.9 194.6 769.9C182.1 769.9 174.4 759.8 171.5 739.6H140.9C139 746.1 138.05 751.1 138.05 754.6C138.05 758 138.45 760.75 139.25 762.85C131.85 767.55 125.25 769.9 119.45 769.9C110.55 769.9 106.1 764.5 106.1 753.7C106.1 748.3 107.75 741.5 111.05 733.3C114.45 725.1 118.9 715.7 124.4 705.1C130 694.5 133.55 687.5 135.05 684.1C133.95 678.7 132.7 673.4 131.3 668.2C136.5 664.6 141.5 661.9 146.3 660.1C151.2 658.2 156.45 657.25 162.05 657.25C167.75 657.25 171.7 658.5 173.9 661C179.6 658.5 184.3 657.25 188 657.25C191.7 657.25 194.45 657.85 196.25 659.05C198.05 660.25 199.35 662 200.15 664.3C201.55 668.3 202.25 673.3 202.25 679.3ZM172.1 682.75H167.3C158.3 700.15 151.6 713.85 147.2 723.85H170.45C170.45 712.95 171 699.25 172.1 682.75ZM320.977 742.45L324.577 740.05C318.077 727.55 314.827 713.85 314.827 698.95C314.827 687.35 317.677 677.5 323.377 669.4C329.177 661.3 337.327 657.25 347.827 657.25C353.327 657.25 357.977 658.2 361.777 660.1C360.777 665.7 358.977 675.45 356.377 689.35C350.777 719.25 347.977 736.4 347.977 740.8C347.977 750.3 349.577 757.4 352.777 762.1C348.377 765 344.327 767 340.627 768.1C336.927 769.2 332.127 769.75 326.227 769.75C320.427 769.75 315.127 768.5 310.327 766C305.627 763.5 301.727 760.2 298.627 756.1C295.627 751.9 293.077 746.75 290.977 740.65C287.277 729.95 285.027 716.35 284.227 699.85H281.827C277.227 720.65 274.927 735.2 274.927 743.5C274.927 751.8 276.427 758.35 279.427 763.15C273.427 767.65 267.177 769.9 260.677 769.9C254.177 769.9 249.527 768.05 246.727 764.35C243.927 760.55 242.527 754.95 242.527 747.55C242.527 740.05 245.677 718.9 251.977 684.1L244.027 668.05C255.227 660.85 265.227 657.25 274.027 657.25C282.827 657.25 289.477 658.8 293.977 661.9C298.477 664.9 301.627 669.35 303.427 675.25C305.227 681.15 306.527 687.4 307.327 694C308.227 700.5 309.727 708.35 311.827 717.55C314.027 726.75 317.077 735.05 320.977 742.45ZM410.695 769.9C404.195 769.9 399.545 768.05 396.745 764.35C393.945 760.55 392.545 754.95 392.545 747.55C392.545 740.05 395.695 718.9 401.995 684.1L394.045 668.05C405.345 660.75 415.645 657.1 424.945 657.1C432.645 657.1 436.495 661.8 436.495 671.2C436.495 674.3 434.545 685.85 430.645 705.85C426.845 725.75 424.945 737.6 424.945 741.4C424.945 751.1 426.445 758.35 429.445 763.15C423.445 767.65 417.195 769.9 410.695 769.9ZM583.599 769.9C577.099 769.9 572.449 768.05 569.649 764.35C566.849 760.55 565.449 755 565.449 747.7C565.449 740.4 567.799 723.6 572.499 697.3H570.099C563.999 705.3 558.949 714.85 554.949 725.95C550.949 737.05 548.499 747.05 547.599 755.95C542.699 760.55 537.049 762.85 530.649 762.85C528.049 762.85 525.749 761.95 523.749 760.15C521.849 758.25 519.949 755 518.049 750.4C514.349 741.1 511.699 723.4 510.099 697.3H507.699C502.799 718.8 500.349 733.95 500.349 742.75C500.349 751.55 501.849 758.35 504.849 763.15C498.849 767.65 492.599 769.9 486.099 769.9C479.599 769.9 474.949 768.05 472.149 764.35C469.349 760.55 467.949 754.95 467.949 747.55C467.949 740.05 471.099 718.9 477.399 684.1L469.449 668.05C480.749 660.75 491.049 657.1 500.349 657.1C504.449 657.1 507.899 657.55 510.699 658.45C513.599 659.25 516.349 660.85 518.949 663.25C521.649 665.65 523.849 669 525.549 673.3C529.449 683 532.249 697.15 533.949 715.75H535.749C540.949 700.45 548.149 687.3 557.349 676.3C562.349 670.4 568.299 665.75 575.199 662.35C582.199 658.95 589.749 657.25 597.849 657.25C605.549 657.25 609.399 661.9 609.399 671.2C609.399 674.3 607.449 685.85 603.549 705.85C599.749 725.75 597.849 737.6 597.849 741.4C597.849 751.1 599.349 758.35 602.349 763.15C596.349 767.65 590.099 769.9 583.599 769.9ZM744.119 763.15C738.119 767.65 732.219 769.9 726.419 769.9C720.619 769.9 716.019 768.4 712.619 765.4C709.219 762.4 707.519 757.9 707.519 751.9C707.519 750.2 707.569 748.9 707.669 748L706.169 747.55C696.269 762.35 682.969 769.75 666.269 769.75C650.169 769.75 642.119 761.25 642.119 744.25C642.119 738.55 642.919 731 644.519 721.6C646.119 712.1 647.469 704.1 648.569 697.6C649.769 691 650.569 686.5 650.969 684.1L643.019 668.05C649.319 664.45 654.769 661.75 659.369 659.95C664.069 658.15 668.769 657.25 673.469 657.25C678.169 657.25 681.319 658.5 682.919 661C684.619 663.4 685.469 666.3 685.469 669.7C685.469 673.1 683.769 684 680.369 702.4C677.069 720.8 675.419 731.55 675.419 734.65C675.419 742.55 678.119 746.5 683.519 746.5C687.519 746.5 692.069 743.95 697.169 738.85C702.269 733.75 706.419 726.75 709.619 717.85C707.519 711.75 706.469 705.45 706.469 698.95C706.469 687.35 709.319 677.5 715.019 669.4C720.819 661.3 728.969 657.25 739.469 657.25C745.269 657.25 749.919 658.2 753.419 660.1C752.519 665.5 750.769 675.3 748.169 689.5C742.469 719.6 739.619 736.9 739.619 741.4C739.619 751.1 741.119 758.35 744.119 763.15ZM836.541 657.25C849.741 657.25 859.641 658.8 866.241 661.9C872.841 664.9 876.141 669.75 876.141 676.45C876.141 683.05 874.091 688.1 869.991 691.6C865.991 695 861.391 696.7 856.191 696.7C850.991 696.7 846.291 695.4 842.091 692.8C837.991 690.1 835.141 686.55 833.541 682.15C829.841 682.15 826.291 683.4 822.891 685.9C819.591 688.3 817.491 691.45 816.591 695.35C836.391 700.15 850.591 705.75 859.191 712.15C867.791 718.55 872.091 726.75 872.091 736.75C872.091 746.75 867.541 754.75 858.441 760.75C849.441 766.75 837.241 769.75 821.841 769.75C806.541 769.75 795.691 767.65 789.291 763.45C782.891 759.25 779.691 753.7 779.691 746.8C779.691 739.9 781.841 733.55 786.141 727.75C788.241 732.25 792.241 736.3 798.141 739.9C804.141 743.5 810.041 745.3 815.841 745.3C826.541 745.3 833.341 741.9 836.241 735.1C819.641 732.9 806.991 728.3 798.291 721.3C789.591 714.2 785.241 705.65 785.241 695.65C785.241 688.95 787.041 683 790.641 677.8C794.241 672.5 798.841 668.45 804.441 665.65C815.441 660.05 826.141 657.25 836.541 657.25Z" fill="white"/>
</g>
<defs>
<filter id="filter0_d_352_110" x="267" y="219" width="488" height="488" filterUnits="userSpaceOnUse" color-interpolation-filters="sRGB">
<feFlood flood-opacity="0" result="BackgroundImageFix"/>
<feColorMatrix in="SourceAlpha" type="matrix" values="0 0 0 0 0 0 0 0 0 0 0 0 0 0 0 0 0 0 127 0" result="hardAlpha"/>
<feOffset dx="11" dy="10"/>
<feGaussianBlur stdDeviation="6.5"/>
<feComposite in2="hardAlpha" operator="out"/>
<feColorMatrix type="matrix" values="0 0 0 0 0 0 0 0 0 0 0 0 0 0 0 0 0 0 0.5 0"/>
<feBlend mode="normal" in2="BackgroundImageFix" result="effect1_dropShadow_352_110"/>
<feBlend mode="normal" in="SourceGraphic" in2="effect1_dropShadow_352_110" result="shape"/>
</filter>
<filter id="filter1_d_352_110" x="100.1" y="644.1" width="818.042" height="160.8" filterUnits="userSpaceOnUse" color-interpolation-filters="sRGB">
<feFlood flood-opacity="0" result="BackgroundImageFix"/>
<feColorMatrix in="SourceAlpha" type="matrix" values="0 0 0 0 0 0 0 0 0 0 0 0 0 0 0 0 0 0 127 0" result="hardAlpha"/>
<feOffset dx="18" dy="11"/>
<feGaussianBlur stdDeviation="12"/>
<feColorMatrix type="matrix" values="0 0 0 0 0 0 0 0 0 0 0 0 0 0 0 0 0 0 0.5 0"/>
<feBlend mode="normal" in2="BackgroundImageFix" result="effect1_dropShadow_352_110"/>
<feBlend mode="normal" in="SourceGraphic" in2="effect1_dropShadow_352_110" result="shape"/>
</filter>
</defs>
</svg>
