<svg width="819" height="187" viewBox="0 0 819 187" fill="none" xmlns="http://www.w3.org/2000/svg">
<g filter="url(#filter0_d_153_7)">
<path d="M102.25 43.3L101.05 79C101.05 91.3 102.05 101.65 104.05 110.05C106.15 118.45 110 124.25 115.6 127.45C108.7 131.75 101.7 133.9 94.6 133.9C82.1 133.9 74.4 123.8 71.5 103.6H40.9C39 110.1 38.05 115.1 38.05 118.6C38.05 122 38.45 124.75 39.25 126.85C31.85 131.55 25.25 133.9 19.45 133.9C10.55 133.9 6.1 128.5 6.1 117.7C6.1 112.3 7.75 105.5 11.05 97.3C14.45 89.1 18.9 79.7 24.4 69.1C30 58.5 33.55 51.5 35.05 48.1C33.95 42.7 32.7 37.4 31.3 32.2C36.5 28.6 41.5 25.9 46.3 24.1C51.2 22.2 56.45 21.25 62.05 21.25C67.75 21.25 71.7 22.5 73.9 25C79.6 22.5 84.3 21.25 88 21.25C91.7 21.25 94.45 21.85 96.25 23.05C98.05 24.25 99.35 26 100.15 28.3C101.55 32.3 102.25 37.3 102.25 43.3ZM72.1 46.75H67.3C58.3 64.15 51.6 77.85 47.2 87.85H70.45C70.45 76.95 71 63.25 72.1 46.75ZM220.977 106.45L224.577 104.05C218.077 91.55 214.827 77.85 214.827 62.95C214.827 51.35 217.677 41.5 223.377 33.4C229.177 25.3 237.327 21.25 247.827 21.25C253.327 21.25 257.977 22.2 261.777 24.1C260.777 29.7 258.977 39.45 256.377 53.35C250.777 83.25 247.977 100.4 247.977 104.8C247.977 114.3 249.577 121.4 252.777 126.1C248.377 129 244.327 131 240.627 132.1C236.927 133.2 232.127 133.75 226.227 133.75C220.427 133.75 215.127 132.5 210.327 130C205.627 127.5 201.727 124.2 198.627 120.1C195.627 115.9 193.077 110.75 190.977 104.65C187.277 93.95 185.027 80.35 184.227 63.85H181.827C177.227 84.65 174.927 99.2 174.927 107.5C174.927 115.8 176.427 122.35 179.427 127.15C173.427 131.65 167.177 133.9 160.677 133.9C154.177 133.9 149.527 132.05 146.727 128.35C143.927 124.55 142.527 118.95 142.527 111.55C142.527 104.05 145.677 82.9 151.977 48.1L144.027 32.05C155.227 24.85 165.227 21.25 174.027 21.25C182.827 21.25 189.477 22.8 193.977 25.9C198.477 28.9 201.627 33.35 203.427 39.25C205.227 45.15 206.527 51.4 207.327 58C208.227 64.5 209.727 72.35 211.827 81.55C214.027 90.75 217.077 99.05 220.977 106.45ZM310.695 133.9C304.195 133.9 299.545 132.05 296.745 128.35C293.945 124.55 292.545 118.95 292.545 111.55C292.545 104.05 295.695 82.9 301.995 48.1L294.045 32.05C305.345 24.75 315.645 21.1 324.945 21.1C332.645 21.1 336.495 25.8 336.495 35.2C336.495 38.3 334.545 49.85 330.645 69.85C326.845 89.75 324.945 101.6 324.945 105.4C324.945 115.1 326.445 122.35 329.445 127.15C323.445 131.65 317.195 133.9 310.695 133.9ZM483.599 133.9C477.099 133.9 472.449 132.05 469.649 128.35C466.849 124.55 465.449 119 465.449 111.7C465.449 104.4 467.799 87.6 472.499 61.3H470.099C463.999 69.3 458.949 78.85 454.949 89.95C450.949 101.05 448.499 111.05 447.599 119.95C442.699 124.55 437.049 126.85 430.649 126.85C428.049 126.85 425.749 125.95 423.749 124.15C421.849 122.25 419.949 119 418.049 114.4C414.349 105.1 411.699 87.4 410.099 61.3H407.699C402.799 82.8 400.349 97.95 400.349 106.75C400.349 115.55 401.849 122.35 404.849 127.15C398.849 131.65 392.599 133.9 386.099 133.9C379.599 133.9 374.949 132.05 372.149 128.35C369.349 124.55 367.949 118.95 367.949 111.55C367.949 104.05 371.099 82.9 377.399 48.1L369.449 32.05C380.749 24.75 391.049 21.1 400.349 21.1C404.449 21.1 407.899 21.55 410.699 22.45C413.599 23.25 416.349 24.85 418.949 27.25C421.649 29.65 423.849 33 425.549 37.3C429.449 47 432.249 61.15 433.949 79.75H435.749C440.949 64.45 448.149 51.3 457.349 40.3C462.349 34.4 468.299 29.75 475.199 26.35C482.199 22.95 489.749 21.25 497.849 21.25C505.549 21.25 509.399 25.9 509.399 35.2C509.399 38.3 507.449 49.85 503.549 69.85C499.749 89.75 497.849 101.6 497.849 105.4C497.849 115.1 499.349 122.35 502.349 127.15C496.349 131.65 490.099 133.9 483.599 133.9ZM644.119 127.15C638.119 131.65 632.219 133.9 626.419 133.9C620.619 133.9 616.019 132.4 612.619 129.4C609.219 126.4 607.519 121.9 607.519 115.9C607.519 114.2 607.569 112.9 607.669 112L606.169 111.55C596.269 126.35 582.969 133.75 566.269 133.75C550.169 133.75 542.119 125.25 542.119 108.25C542.119 102.55 542.919 95 544.519 85.6C546.119 76.1 547.469 68.1 548.569 61.6C549.769 55 550.569 50.5 550.969 48.1L543.019 32.05C549.319 28.45 554.769 25.75 559.369 23.95C564.069 22.15 568.769 21.25 573.469 21.25C578.169 21.25 581.319 22.5 582.919 25C584.619 27.4 585.469 30.3 585.469 33.7C585.469 37.1 583.769 48 580.369 66.4C577.069 84.8 575.419 95.55 575.419 98.65C575.419 106.55 578.119 110.5 583.519 110.5C587.519 110.5 592.069 107.95 597.169 102.85C602.269 97.75 606.419 90.75 609.619 81.85C607.519 75.75 606.469 69.45 606.469 62.95C606.469 51.35 609.319 41.5 615.019 33.4C620.819 25.3 628.969 21.25 639.469 21.25C645.269 21.25 649.919 22.2 653.419 24.1C652.519 29.5 650.769 39.3 648.169 53.5C642.469 83.6 639.619 100.9 639.619 105.4C639.619 115.1 641.119 122.35 644.119 127.15ZM736.541 21.25C749.741 21.25 759.641 22.8 766.241 25.9C772.841 28.9 776.141 33.75 776.141 40.45C776.141 47.05 774.091 52.1 769.991 55.6C765.991 59 761.391 60.7 756.191 60.7C750.991 60.7 746.291 59.4 742.091 56.8C737.991 54.1 735.141 50.55 733.541 46.15C729.841 46.15 726.291 47.4 722.891 49.9C719.591 52.3 717.491 55.45 716.591 59.35C736.391 64.15 750.591 69.75 759.191 76.15C767.791 82.55 772.091 90.75 772.091 100.75C772.091 110.75 767.541 118.75 758.441 124.75C749.441 130.75 737.241 133.75 721.841 133.75C706.541 133.75 695.691 131.65 689.291 127.45C682.891 123.25 679.691 117.7 679.691 110.8C679.691 103.9 681.841 97.55 686.141 91.75C688.241 96.25 692.241 100.3 698.141 103.9C704.141 107.5 710.041 109.3 715.841 109.3C726.541 109.3 733.341 105.9 736.241 99.1C719.641 96.9 706.991 92.3 698.291 85.3C689.591 78.2 685.241 69.65 685.241 59.65C685.241 52.95 687.041 47 690.641 41.8C694.241 36.5 698.841 32.45 704.441 29.65C715.441 24.05 726.141 21.25 736.541 21.25Z" fill="white"/>
</g>
<path d="M533.976 180.648C533.165 180.648 532.472 180.541 531.896 180.328C531.341 180.114 530.893 179.709 530.552 179.112C530.211 178.514 530.04 177.65 530.04 176.52C530.04 175.09 530.317 172.786 530.872 169.608C531.448 166.408 532.227 162.557 533.208 158.056L531.8 156.456C532.312 156.029 532.909 155.698 533.592 155.464C534.296 155.208 534.925 155.08 535.48 155.08C536.099 155.08 536.536 155.218 536.792 155.496C537.048 155.752 537.176 156.2 537.176 156.84C537.176 157.245 537.091 157.81 536.92 158.536C536.771 159.24 536.536 160.232 536.216 161.512C535.811 163.09 535.48 164.445 535.224 165.576L535.544 165.736C536.355 164.114 537.357 162.866 538.552 161.992C539.747 161.096 541.059 160.648 542.488 160.648C543.64 160.648 544.653 160.946 545.528 161.544C546.424 162.12 547.107 162.952 547.576 164.04C548.067 165.106 548.312 166.354 548.312 167.784C548.312 170.173 547.672 172.349 546.392 174.312C545.133 176.274 543.405 177.821 541.208 178.952C539.032 180.082 536.621 180.648 533.976 180.648ZM533.176 178.568C535.288 178.482 537.197 177.981 538.904 177.064C540.611 176.146 541.944 174.92 542.904 173.384C543.885 171.826 544.376 170.12 544.376 168.264C544.376 166.813 544.077 165.682 543.48 164.872C542.883 164.061 542.04 163.656 540.952 163.656C539.629 163.656 538.371 164.285 537.176 165.544C535.981 166.802 535.011 168.573 534.264 170.856C533.539 173.117 533.176 175.688 533.176 178.568ZM552.832 186.248C551.488 186.248 550.485 186.013 549.823 185.544C549.162 185.074 548.831 184.434 548.831 183.624C548.831 183.325 548.895 183.005 549.023 182.664C549.151 182.344 549.301 182.056 549.471 181.8C549.919 182.312 550.442 182.728 551.04 183.048C551.637 183.368 552.48 183.528 553.568 183.528C555.274 183.528 557.194 182.834 559.328 181.448C561.482 180.082 563.349 177.874 564.928 174.824C566.528 171.773 567.328 167.901 567.328 163.208C567.328 162.333 567.306 161.746 567.264 161.448C567.754 161.149 568.16 160.946 568.48 160.84C568.8 160.712 569.141 160.648 569.503 160.648C570.592 160.648 571.136 161.288 571.136 162.568C571.136 166.024 570.368 169.597 568.832 173.288C567.296 176.978 565.13 180.061 562.336 182.536C559.562 185.01 556.394 186.248 552.832 186.248ZM561.184 180.648C559.392 180.648 558.069 180.168 557.216 179.208C556.362 178.248 555.818 177.085 555.584 175.72C555.37 174.333 555.232 172.477 555.168 170.152C555.146 168.616 555.093 167.357 555.008 166.376C554.922 165.373 554.73 164.434 554.432 163.56C554.154 162.685 553.717 161.981 553.12 161.448C553.802 160.914 554.538 160.648 555.328 160.648C556.458 160.648 557.28 161.053 557.792 161.864C558.325 162.653 558.645 163.634 558.752 164.808C558.88 165.96 558.944 167.538 558.944 169.544C558.965 171.698 559.04 173.405 559.168 174.664C559.317 175.922 559.701 177 560.32 177.896C560.96 178.77 561.941 179.208 563.264 179.208L561.184 180.648ZM590.791 180.68C590.023 180.68 589.458 180.488 589.095 180.104C588.732 179.72 588.551 179.09 588.551 178.216C588.551 177.042 588.754 174.962 589.159 171.976C589.586 168.989 590.29 164.562 591.271 158.696L595.111 159.432L594.375 164.008C593.756 167.933 593.287 170.93 592.967 173C592.668 175.069 592.519 176.456 592.519 177.16C592.519 178.333 592.764 179.229 593.255 179.848C592.444 180.402 591.623 180.68 590.791 180.68ZM598.471 161.096C597.852 161.096 597.212 161.064 596.551 161C595.911 160.914 595.196 160.808 594.407 160.68C593.703 160.573 592.967 160.477 592.199 160.392C591.452 160.306 590.748 160.264 590.087 160.264L584.935 161.032C584.722 160.626 584.615 160.104 584.615 159.464C584.615 158.525 584.882 157.874 585.415 157.512C585.948 157.149 586.748 156.968 587.815 156.968C588.412 156.968 589.074 157.01 589.799 157.096C590.546 157.181 591.26 157.277 591.943 157.384C592.839 157.533 593.607 157.65 594.247 157.736C594.887 157.8 595.538 157.832 596.199 157.832L601.351 157.032C601.543 157.416 601.639 157.938 601.639 158.6C601.639 159.389 601.362 160.008 600.807 160.456C600.252 160.882 599.474 161.096 598.471 161.096ZM612.351 171.944C611.135 171.944 610.079 171.794 609.183 171.496C608.308 171.197 607.412 170.664 606.495 169.896L607.263 168.392C607.753 168.754 608.319 169.032 608.959 169.224C609.62 169.394 610.303 169.48 611.007 169.48C612.393 169.48 613.599 169.234 614.623 168.744C615.647 168.253 616.425 167.581 616.958 166.728C617.513 165.874 617.791 164.904 617.791 163.816C617.791 162.472 617.407 161.373 616.639 160.52C615.892 159.666 614.687 159.24 613.023 159.24C612.212 159.24 611.38 159.432 610.527 159.816C609.695 160.178 608.777 160.733 607.775 161.48V160.136C608.585 159.346 609.3 158.717 609.919 158.248C610.537 157.778 611.273 157.405 612.127 157.128C612.98 156.829 613.972 156.68 615.103 156.68C616.511 156.68 617.727 156.989 618.751 157.608C619.775 158.205 620.543 159.016 621.055 160.04C621.588 161.064 621.855 162.173 621.855 163.368C621.855 164.797 621.503 166.173 620.799 167.496C620.095 168.797 619.028 169.864 617.599 170.696C616.169 171.528 614.42 171.944 612.351 171.944ZM605.791 180.68C605.001 180.68 604.425 180.477 604.062 180.072C603.7 179.666 603.519 179.005 603.519 178.088C603.519 176.85 603.689 174.973 604.031 172.456C604.372 169.938 605.023 165.757 605.983 159.912L604.991 157.96C606.42 157.064 607.689 156.616 608.799 156.616C609.737 156.616 610.207 157.181 610.207 158.312C610.207 158.589 609.94 160.253 609.407 163.304C608.831 166.717 608.361 169.586 607.999 171.912C607.657 174.237 607.487 175.944 607.487 177.032C607.487 177.65 607.551 178.194 607.679 178.664C607.807 179.133 607.999 179.528 608.255 179.848C607.423 180.402 606.601 180.68 605.791 180.68ZM619.423 180.648C618.761 180.648 618.207 180.498 617.759 180.2C617.311 179.922 616.852 179.41 616.383 178.664C615.935 177.896 615.369 176.733 614.687 175.176L612.703 170.792L616.127 169.384C617.151 171.773 618.196 173.896 619.263 175.752C620.351 177.608 621.3 178.888 622.111 179.592C621.855 179.869 621.449 180.114 620.895 180.328C620.361 180.541 619.871 180.648 619.423 180.648ZM628.978 180.68C628.189 180.68 627.613 180.477 627.25 180.072C626.887 179.666 626.706 179.005 626.706 178.088C626.706 176.872 626.877 175.016 627.218 172.52C627.559 170.024 628.21 165.821 629.17 159.912L628.178 157.96C629.607 157.064 630.877 156.616 631.986 156.616C632.925 156.616 633.394 157.181 633.394 158.312C633.394 158.504 633.298 159.197 633.106 160.392C632.914 161.565 632.701 162.877 632.466 164.328C631.847 168.232 631.389 171.133 631.09 173.032C630.813 174.93 630.674 176.264 630.674 177.032C630.674 177.586 630.791 178.066 631.026 178.472C631.282 178.856 631.677 179.186 632.21 179.464C631.079 180.274 630.002 180.68 628.978 180.68ZM636.018 180.648C634.695 180.648 633.394 180.477 632.114 180.136C630.834 179.816 629.757 179.368 628.882 178.792L629.938 177.448H637.106C638.386 177.298 639.549 177.021 640.594 176.616C640.786 177.256 640.882 177.725 640.882 178.024C640.882 178.92 640.487 179.581 639.698 180.008C638.93 180.434 637.703 180.648 636.018 180.648ZM634.674 170.888C633.586 170.888 632.253 170.674 630.674 170.248L631.122 168.04C632.253 168.21 633.607 168.296 635.186 168.296L637.554 167.72C637.554 167.784 637.554 167.858 637.554 167.944C637.554 168.008 637.565 168.072 637.586 168.136C637.586 168.2 637.586 168.264 637.586 168.328C637.586 168.392 637.586 168.445 637.586 168.488C637.586 169.256 637.33 169.853 636.818 170.28C636.327 170.685 635.613 170.888 634.674 170.888ZM638.514 161.224C637.213 161.224 635.954 161.138 634.738 160.968C633.543 160.776 632.37 160.466 631.218 160.04L631.986 158.12C633.778 158.12 635.303 158.034 636.562 157.864C637.821 157.693 639.495 157.394 641.586 156.968C641.714 156.946 641.831 156.925 641.938 156.904C642.066 156.861 642.194 156.829 642.322 156.808C642.429 157.17 642.482 157.618 642.482 158.152C642.482 159.197 642.098 159.976 641.33 160.488C640.583 160.978 639.645 161.224 638.514 161.224ZM647.541 180.68C646.751 180.68 646.175 180.477 645.812 180.072C645.45 179.666 645.269 179.005 645.269 178.088C645.269 176.872 645.439 175.016 645.781 172.52C646.122 170.024 646.773 165.821 647.733 159.912L646.741 157.96C648.17 157.064 649.439 156.616 650.549 156.616C651.487 156.616 651.957 157.181 651.957 158.312C651.957 158.504 651.861 159.197 651.669 160.392C651.477 161.565 651.263 162.877 651.029 164.328C650.41 168.232 649.951 171.133 649.653 173.032C649.375 174.93 649.237 176.264 649.237 177.032C649.237 177.586 649.354 178.066 649.589 178.472C649.845 178.856 650.239 179.186 650.773 179.464C649.642 180.274 648.565 180.68 647.541 180.68ZM654.581 180.648C653.258 180.648 651.957 180.477 650.677 180.136C649.397 179.816 648.319 179.368 647.445 178.792L648.501 177.448H655.669C656.949 177.298 658.111 177.021 659.157 176.616C659.349 177.256 659.444 177.725 659.444 178.024C659.444 178.92 659.05 179.581 658.26 180.008C657.493 180.434 656.266 180.648 654.581 180.648ZM653.237 170.888C652.149 170.888 650.815 170.674 649.237 170.248L649.685 168.04C650.815 168.21 652.17 168.296 653.749 168.296L656.117 167.72C656.117 167.784 656.117 167.858 656.117 167.944C656.117 168.008 656.127 168.072 656.149 168.136C656.149 168.2 656.149 168.264 656.149 168.328C656.149 168.392 656.149 168.445 656.149 168.488C656.149 169.256 655.893 169.853 655.381 170.28C654.89 170.685 654.175 170.888 653.237 170.888ZM657.077 161.224C655.775 161.224 654.517 161.138 653.301 160.968C652.106 160.776 650.933 160.466 649.781 160.04L650.549 158.12C652.341 158.12 653.866 158.034 655.125 157.864C656.383 157.693 658.058 157.394 660.149 156.968C660.277 156.946 660.394 156.925 660.501 156.904C660.629 156.861 660.757 156.829 660.885 156.808C660.991 157.17 661.045 157.618 661.045 158.152C661.045 159.197 660.661 159.976 659.892 160.488C659.146 160.978 658.207 161.224 657.077 161.224ZM683.038 173.288C681.779 173.288 680.638 173.117 679.614 172.776C678.611 172.434 677.673 171.922 676.798 171.24L677.95 169.736C678.441 170.098 679.006 170.376 679.646 170.568C680.307 170.738 680.99 170.824 681.694 170.824C683.081 170.824 684.286 170.546 685.31 169.992C686.334 169.416 687.113 168.637 687.646 167.656C688.201 166.674 688.478 165.554 688.478 164.296C688.478 162.824 688.094 161.618 687.326 160.68C686.579 159.72 685.374 159.24 683.71 159.24C682.899 159.24 682.067 159.432 681.214 159.816C680.382 160.178 679.465 160.733 678.462 161.48V160.136C679.273 159.346 679.987 158.717 680.606 158.248C681.225 157.778 681.961 157.405 682.814 157.128C683.667 156.829 684.659 156.68 685.79 156.68C687.198 156.68 688.414 157.01 689.438 157.672C690.462 158.333 691.23 159.208 691.742 160.296C692.275 161.384 692.542 162.568 692.542 163.848C692.542 165.533 692.19 167.09 691.486 168.52C690.782 169.949 689.715 171.101 688.286 171.976C686.878 172.85 685.129 173.288 683.038 173.288ZM676.478 180.68C675.689 180.68 675.113 180.477 674.75 180.072C674.387 179.666 674.206 179.005 674.206 178.088C674.206 176.85 674.377 174.973 674.718 172.456C675.059 169.938 675.71 165.757 676.67 159.912L675.678 157.96C677.107 157.064 678.377 156.616 679.486 156.616C680.425 156.616 680.894 157.181 680.894 158.312C680.894 158.504 680.798 159.197 680.606 160.392C680.414 161.565 680.201 162.877 679.966 164.328C679.347 168.232 678.889 171.133 678.59 173.032C678.313 174.93 678.174 176.264 678.174 177.032C678.174 177.65 678.238 178.194 678.366 178.664C678.494 179.133 678.686 179.528 678.942 179.848C678.11 180.402 677.289 180.68 676.478 180.68ZM698.666 180.68C697.876 180.68 697.3 180.477 696.938 180.072C696.575 179.666 696.394 179.005 696.394 178.088C696.394 176.872 696.564 175.016 696.906 172.52C697.247 170.024 697.898 165.821 698.858 159.912L697.866 157.96C699.295 157.064 700.564 156.616 701.674 156.616C702.612 156.616 703.082 157.181 703.082 158.312C703.082 158.504 702.986 159.197 702.794 160.392C702.602 161.565 702.388 162.877 702.154 164.328C701.535 168.232 701.076 171.133 700.778 173.032C700.5 174.93 700.362 176.264 700.362 177.032C700.362 177.586 700.479 178.066 700.714 178.472C700.97 178.856 701.364 179.186 701.898 179.464C700.767 180.274 699.69 180.68 698.666 180.68ZM705.706 180.648C704.383 180.648 703.082 180.477 701.802 180.136C700.522 179.816 699.444 179.368 698.57 178.792L699.626 177.448H706.794C708.074 177.298 709.236 177.021 710.282 176.616C710.474 177.256 710.569 177.725 710.569 178.024C710.569 178.92 710.175 179.581 709.385 180.008C708.618 180.434 707.391 180.648 705.706 180.648ZM704.362 170.888C703.274 170.888 701.94 170.674 700.362 170.248L700.81 168.04C701.94 168.21 703.295 168.296 704.874 168.296L707.242 167.72C707.242 167.784 707.242 167.858 707.242 167.944C707.242 168.008 707.252 168.072 707.274 168.136C707.274 168.2 707.274 168.264 707.274 168.328C707.274 168.392 707.274 168.445 707.274 168.488C707.274 169.256 707.018 169.853 706.506 170.28C706.015 170.685 705.3 170.888 704.362 170.888ZM708.202 161.224C706.9 161.224 705.642 161.138 704.426 160.968C703.231 160.776 702.058 160.466 700.906 160.04L701.674 158.12C703.466 158.12 704.991 158.034 706.25 157.864C707.508 157.693 709.183 157.394 711.274 156.968C711.402 156.946 711.519 156.925 711.626 156.904C711.754 156.861 711.882 156.829 712.01 156.808C712.116 157.17 712.17 157.618 712.17 158.152C712.17 159.197 711.786 159.976 711.017 160.488C710.271 160.978 709.332 161.224 708.202 161.224ZM722.252 180.648C720.439 180.648 718.849 180.253 717.484 179.464C716.14 178.653 715.095 177.512 714.348 176.04C713.601 174.546 713.228 172.818 713.228 170.856C713.228 168.018 713.783 165.522 714.892 163.368C716.001 161.213 717.484 159.56 719.34 158.408C721.196 157.234 723.223 156.648 725.42 156.648C726.487 156.648 727.276 156.808 727.788 157.128C728.3 157.426 728.556 157.906 728.556 158.568C728.556 158.802 728.535 159.016 728.492 159.208C728.449 159.378 728.385 159.57 728.3 159.784C728.023 159.72 727.703 159.666 727.34 159.624C726.977 159.56 726.668 159.528 726.412 159.528C724.727 159.528 723.191 159.997 721.804 160.936C720.439 161.874 719.351 163.197 718.54 164.904C717.751 166.589 717.356 168.53 717.356 170.728C717.356 173.245 717.868 175.154 718.892 176.456C719.937 177.757 721.345 178.408 723.116 178.408C724.289 178.408 725.473 178.024 726.668 177.256C727.884 176.466 728.919 175.368 729.772 173.96C730.647 172.53 731.201 170.909 731.436 169.096C730.156 168.52 729.239 167.794 728.684 166.92C728.151 166.024 727.884 165.021 727.884 163.912C727.884 162.866 728.183 162.002 728.78 161.32C729.377 160.616 730.124 160.264 731.02 160.264C732.108 160.264 732.961 160.754 733.58 161.736C734.199 162.696 734.508 164.029 734.508 165.736C734.508 168.509 733.975 171.037 732.908 173.32C731.863 175.581 730.401 177.373 728.524 178.696C726.668 179.997 724.577 180.648 722.252 180.648ZM747.601 173.288C746.342 173.288 745.201 173.117 744.177 172.776C743.174 172.434 742.235 171.922 741.361 171.24L742.513 169.736C743.003 170.098 743.569 170.376 744.209 170.568C744.87 170.738 745.553 170.824 746.257 170.824C747.643 170.824 748.849 170.546 749.873 169.992C750.897 169.416 751.675 168.637 752.208 167.656C752.763 166.674 753.041 165.554 753.041 164.296C753.041 162.824 752.657 161.618 751.889 160.68C751.142 159.72 749.937 159.24 748.273 159.24C747.462 159.24 746.63 159.432 745.777 159.816C744.945 160.178 744.027 160.733 743.025 161.48V160.136C743.835 159.346 744.55 158.717 745.169 158.248C745.787 157.778 746.523 157.405 747.377 157.128C748.23 156.829 749.222 156.68 750.353 156.68C751.761 156.68 752.977 157.01 754.001 157.672C755.025 158.333 755.793 159.208 756.305 160.296C756.838 161.384 757.105 162.568 757.105 163.848C757.105 165.533 756.753 167.09 756.049 168.52C755.345 169.949 754.278 171.101 752.849 171.976C751.441 172.85 749.691 173.288 747.601 173.288ZM741.041 180.68C740.251 180.68 739.675 180.477 739.312 180.072C738.95 179.666 738.769 179.005 738.769 178.088C738.769 176.85 738.939 174.973 739.281 172.456C739.622 169.938 740.273 165.757 741.233 159.912L740.241 157.96C741.67 157.064 742.939 156.616 744.049 156.616C744.987 156.616 745.457 157.181 745.457 158.312C745.457 158.504 745.361 159.197 745.169 160.392C744.977 161.565 744.763 162.877 744.529 164.328C743.91 168.232 743.451 171.133 743.153 173.032C742.875 174.93 742.737 176.264 742.737 177.032C742.737 177.65 742.801 178.194 742.929 178.664C743.057 179.133 743.249 179.528 743.505 179.848C742.673 180.402 741.851 180.68 741.041 180.68ZM763.228 180.68C762.439 180.68 761.863 180.477 761.5 180.072C761.137 179.666 760.956 179.005 760.956 178.088C760.956 176.829 761.127 174.93 761.468 172.392C761.809 169.832 762.46 165.672 763.42 159.912L762.428 157.96C763.857 157.064 765.127 156.616 766.236 156.616C767.175 156.616 767.644 157.181 767.644 158.312C767.644 158.504 767.548 159.197 767.356 160.392C767.164 161.565 766.951 162.877 766.716 164.328C766.097 168.232 765.639 171.133 765.34 173.032C765.063 174.93 764.924 176.264 764.924 177.032C764.924 177.586 765.041 178.066 765.276 178.472C765.532 178.856 765.927 179.186 766.46 179.464C765.329 180.274 764.252 180.68 763.228 180.68ZM769.308 180.648C768.092 180.648 766.908 180.509 765.756 180.232C764.604 179.954 763.644 179.57 762.876 179.08L763.964 177.448H770.012C771.292 177.298 772.455 177.021 773.5 176.616C773.692 177.192 773.788 177.661 773.788 178.024C773.788 178.92 773.425 179.581 772.7 180.008C771.975 180.434 770.844 180.648 769.308 180.648ZM780.603 180.68C779.814 180.68 779.238 180.477 778.875 180.072C778.512 179.666 778.331 179.005 778.331 178.088C778.331 176.872 778.502 175.016 778.843 172.52C779.184 170.024 779.835 165.821 780.795 159.912L779.803 157.96C781.232 157.064 782.502 156.616 783.611 156.616C784.55 156.616 785.019 157.181 785.019 158.312C785.019 158.504 784.923 159.197 784.731 160.392C784.539 161.565 784.326 162.877 784.091 164.328C783.472 168.232 783.014 171.133 782.715 173.032C782.438 174.93 782.299 176.264 782.299 177.032C782.299 177.586 782.416 178.066 782.651 178.472C782.907 178.856 783.302 179.186 783.835 179.464C782.704 180.274 781.627 180.68 780.603 180.68ZM787.643 180.648C786.32 180.648 785.019 180.477 783.739 180.136C782.459 179.816 781.382 179.368 780.507 178.792L781.563 177.448H788.731C790.011 177.298 791.174 177.021 792.219 176.616C792.411 177.256 792.507 177.725 792.507 178.024C792.507 178.92 792.112 179.581 791.323 180.008C790.555 180.434 789.328 180.648 787.643 180.648ZM786.299 170.888C785.211 170.888 783.878 170.674 782.299 170.248L782.747 168.04C783.878 168.21 785.232 168.296 786.811 168.296L789.179 167.72C789.179 167.784 789.179 167.858 789.179 167.944C789.179 168.008 789.19 168.072 789.211 168.136C789.211 168.2 789.211 168.264 789.211 168.328C789.211 168.392 789.211 168.445 789.211 168.488C789.211 169.256 788.955 169.853 788.443 170.28C787.952 170.685 787.238 170.888 786.299 170.888ZM790.139 161.224C788.838 161.224 787.579 161.138 786.363 160.968C785.168 160.776 783.995 160.466 782.843 160.04L783.611 158.12C785.403 158.12 786.928 158.034 788.187 157.864C789.446 157.693 791.12 157.394 793.211 156.968C793.339 156.946 793.456 156.925 793.563 156.904C793.691 156.861 793.819 156.829 793.947 156.808C794.054 157.17 794.107 157.618 794.107 158.152C794.107 159.197 793.723 159.976 792.955 160.488C792.208 160.978 791.27 161.224 790.139 161.224Z" fill="white"/>
<defs>
<filter id="filter0_d_153_7" x="0.0996094" y="8.10001" width="818.042" height="160.8" filterUnits="userSpaceOnUse" color-interpolation-filters="sRGB">
<feFlood flood-opacity="0" result="BackgroundImageFix"/>
<feColorMatrix in="SourceAlpha" type="matrix" values="0 0 0 0 0 0 0 0 0 0 0 0 0 0 0 0 0 0 127 0" result="hardAlpha"/>
<feOffset dx="18" dy="11"/>
<feGaussianBlur stdDeviation="12"/>
<feColorMatrix type="matrix" values="0 0 0 0 0 0 0 0 0 0 0 0 0 0 0 0 0 0 0.5 0"/>
<feBlend mode="normal" in2="BackgroundImageFix" result="effect1_dropShadow_153_7"/>
<feBlend mode="normal" in="SourceGraphic" in2="effect1_dropShadow_153_7" result="shape"/>
</filter>
</defs>
</svg>
