<svg width="819" height="161" viewBox="0 0 819 161" fill="none" xmlns="http://www.w3.org/2000/svg">
<g filter="url(#filter0_d_240_212)">
<path d="M102.25 35.3L101.05 71C101.05 83.3 102.05 93.65 104.05 102.05C106.15 110.45 110 116.25 115.6 119.45C108.7 123.75 101.7 125.9 94.6 125.9C82.1 125.9 74.4 115.8 71.5 95.6H40.9C39 102.1 38.05 107.1 38.05 110.6C38.05 114 38.45 116.75 39.25 118.85C31.85 123.55 25.25 125.9 19.45 125.9C10.55 125.9 6.1 120.5 6.1 109.7C6.1 104.3 7.75 97.5 11.05 89.3C14.45 81.1 18.9 71.7 24.4 61.1C30 50.5 33.55 43.5 35.05 40.1C33.95 34.7 32.7 29.4 31.3 24.2C36.5 20.6 41.5 17.9 46.3 16.1C51.2 14.2 56.45 13.25 62.05 13.25C67.75 13.25 71.7 14.5 73.9 17C79.6 14.5 84.3 13.25 88 13.25C91.7 13.25 94.45 13.85 96.25 15.05C98.05 16.25 99.35 18 100.15 20.3C101.55 24.3 102.25 29.3 102.25 35.3ZM72.1 38.75H67.3C58.3 56.15 51.6 69.85 47.2 79.85H70.45C70.45 68.95 71 55.25 72.1 38.75ZM220.977 98.45L224.577 96.05C218.077 83.55 214.827 69.85 214.827 54.95C214.827 43.35 217.677 33.5 223.377 25.4C229.177 17.3 237.327 13.25 247.827 13.25C253.327 13.25 257.977 14.2 261.777 16.1C260.777 21.7 258.977 31.45 256.377 45.35C250.777 75.25 247.977 92.4 247.977 96.8C247.977 106.3 249.577 113.4 252.777 118.1C248.377 121 244.327 123 240.627 124.1C236.927 125.2 232.127 125.75 226.227 125.75C220.427 125.75 215.127 124.5 210.327 122C205.627 119.5 201.727 116.2 198.627 112.1C195.627 107.9 193.077 102.75 190.977 96.65C187.277 85.95 185.027 72.35 184.227 55.85H181.827C177.227 76.65 174.927 91.2 174.927 99.5C174.927 107.8 176.427 114.35 179.427 119.15C173.427 123.65 167.177 125.9 160.677 125.9C154.177 125.9 149.527 124.05 146.727 120.35C143.927 116.55 142.527 110.95 142.527 103.55C142.527 96.05 145.677 74.9 151.977 40.1L144.027 24.05C155.227 16.85 165.227 13.25 174.027 13.25C182.827 13.25 189.477 14.8 193.977 17.9C198.477 20.9 201.627 25.35 203.427 31.25C205.227 37.15 206.527 43.4 207.327 50C208.227 56.5 209.727 64.35 211.827 73.55C214.027 82.75 217.077 91.05 220.977 98.45ZM310.695 125.9C304.195 125.9 299.545 124.05 296.745 120.35C293.945 116.55 292.545 110.95 292.545 103.55C292.545 96.05 295.695 74.9 301.995 40.1L294.045 24.05C305.345 16.75 315.645 13.1 324.945 13.1C332.645 13.1 336.495 17.8 336.495 27.2C336.495 30.3 334.545 41.85 330.645 61.85C326.845 81.75 324.945 93.6 324.945 97.4C324.945 107.1 326.445 114.35 329.445 119.15C323.445 123.65 317.195 125.9 310.695 125.9ZM483.599 125.9C477.099 125.9 472.449 124.05 469.649 120.35C466.849 116.55 465.449 111 465.449 103.7C465.449 96.4 467.799 79.6 472.499 53.3H470.099C463.999 61.3 458.949 70.85 454.949 81.95C450.949 93.05 448.499 103.05 447.599 111.95C442.699 116.55 437.049 118.85 430.649 118.85C428.049 118.85 425.749 117.95 423.749 116.15C421.849 114.25 419.949 111 418.049 106.4C414.349 97.1 411.699 79.4 410.099 53.3H407.699C402.799 74.8 400.349 89.95 400.349 98.75C400.349 107.55 401.849 114.35 404.849 119.15C398.849 123.65 392.599 125.9 386.099 125.9C379.599 125.9 374.949 124.05 372.149 120.35C369.349 116.55 367.949 110.95 367.949 103.55C367.949 96.05 371.099 74.9 377.399 40.1L369.449 24.05C380.749 16.75 391.049 13.1 400.349 13.1C404.449 13.1 407.899 13.55 410.699 14.45C413.599 15.25 416.349 16.85 418.949 19.25C421.649 21.65 423.849 25 425.549 29.3C429.449 39 432.249 53.15 433.949 71.75H435.749C440.949 56.45 448.149 43.3 457.349 32.3C462.349 26.4 468.299 21.75 475.199 18.35C482.199 14.95 489.749 13.25 497.849 13.25C505.549 13.25 509.399 17.9 509.399 27.2C509.399 30.3 507.449 41.85 503.549 61.85C499.749 81.75 497.849 93.6 497.849 97.4C497.849 107.1 499.349 114.35 502.349 119.15C496.349 123.65 490.099 125.9 483.599 125.9ZM644.119 119.15C638.119 123.65 632.219 125.9 626.419 125.9C620.619 125.9 616.019 124.4 612.619 121.4C609.219 118.4 607.519 113.9 607.519 107.9C607.519 106.2 607.569 104.9 607.669 104L606.169 103.55C596.269 118.35 582.969 125.75 566.269 125.75C550.169 125.75 542.119 117.25 542.119 100.25C542.119 94.55 542.919 87 544.519 77.6C546.119 68.1 547.469 60.1 548.569 53.6C549.769 47 550.569 42.5 550.969 40.1L543.019 24.05C549.319 20.45 554.769 17.75 559.369 15.95C564.069 14.15 568.769 13.25 573.469 13.25C578.169 13.25 581.319 14.5 582.919 17C584.619 19.4 585.469 22.3 585.469 25.7C585.469 29.1 583.769 40 580.369 58.4C577.069 76.8 575.419 87.55 575.419 90.65C575.419 98.55 578.119 102.5 583.519 102.5C587.519 102.5 592.069 99.95 597.169 94.85C602.269 89.75 606.419 82.75 609.619 73.85C607.519 67.75 606.469 61.45 606.469 54.95C606.469 43.35 609.319 33.5 615.019 25.4C620.819 17.3 628.969 13.25 639.469 13.25C645.269 13.25 649.919 14.2 653.419 16.1C652.519 21.5 650.769 31.3 648.169 45.5C642.469 75.6 639.619 92.9 639.619 97.4C639.619 107.1 641.119 114.35 644.119 119.15ZM736.541 13.25C749.741 13.25 759.641 14.8 766.241 17.9C772.841 20.9 776.141 25.75 776.141 32.45C776.141 39.05 774.091 44.1 769.991 47.6C765.991 51 761.391 52.7 756.191 52.7C750.991 52.7 746.291 51.4 742.091 48.8C737.991 46.1 735.141 42.55 733.541 38.15C729.841 38.15 726.291 39.4 722.891 41.9C719.591 44.3 717.491 47.45 716.591 51.35C736.391 56.15 750.591 61.75 759.191 68.15C767.791 74.55 772.091 82.75 772.091 92.75C772.091 102.75 767.541 110.75 758.441 116.75C749.441 122.75 737.241 125.75 721.841 125.75C706.541 125.75 695.691 123.65 689.291 119.45C682.891 115.25 679.691 109.7 679.691 102.8C679.691 95.9 681.841 89.55 686.141 83.75C688.241 88.25 692.241 92.3 698.141 95.9C704.141 99.5 710.041 101.3 715.841 101.3C726.541 101.3 733.341 97.9 736.241 91.1C719.641 88.9 706.991 84.3 698.291 77.3C689.591 70.2 685.241 61.65 685.241 51.65C685.241 44.95 687.041 39 690.641 33.8C694.241 28.5 698.841 24.45 704.441 21.65C715.441 16.05 726.141 13.25 736.541 13.25Z" fill="white"/>
</g>
<defs>
<filter id="filter0_d_240_212" x="0.0996094" y="0.0999756" width="818.042" height="160.8" filterUnits="userSpaceOnUse" color-interpolation-filters="sRGB">
<feFlood flood-opacity="0" result="BackgroundImageFix"/>
<feColorMatrix in="SourceAlpha" type="matrix" values="0 0 0 0 0 0 0 0 0 0 0 0 0 0 0 0 0 0 127 0" result="hardAlpha"/>
<feOffset dx="18" dy="11"/>
<feGaussianBlur stdDeviation="12"/>
<feColorMatrix type="matrix" values="0 0 0 0 0 0 0 0 0 0 0 0 0 0 0 0 0 0 0.5 0"/>
<feBlend mode="normal" in2="BackgroundImageFix" result="effect1_dropShadow_240_212"/>
<feBlend mode="normal" in="SourceGraphic" in2="effect1_dropShadow_240_212" result="shape"/>
</filter>
</defs>
</svg>
